<svg xmlns="http://www.w3.org/2000/svg" width="24" height="24" xmlns:xlink="http://www.w3.org/1999/xlink">
    <path d="M8.676 8.206c.199.025.649.117.887.437.309.412.298 1.336.298 1.336s.177 2.545-.414 2.861c-.404.218-.96-.225-2.156-2.251C6.68 9.552 6.22 8.406 6.22 8.406s-.09-.214-.248-.33a1.247 1.247 0 0 0-.463-.18l-2.856.017s-.43.012-.587.195c-.14.162-.011.5-.011.5s2.236 5.137 4.77 7.727c2.324 2.374 4.961 2.218 4.961 2.218h1.195s.362-.039.546-.235c.17-.178.164-.515.164-.515s-.022-1.573.723-1.805c.733-.23 1.675 1.52 2.675 2.194.755.509 1.328.397 1.328.397l2.672-.036s1.397-.085.733-1.163c-.054-.088-.385-.798-1.985-2.255-1.675-1.527-1.45-1.28.566-3.919 1.23-1.607 1.72-2.589 1.567-3.008-.146-.402-1.05-.295-1.05-.295l-3.007.019s-.223-.03-.388.066c-.161.096-.267.317-.267.317s-.475 1.244-1.11 2.302c-1.34 2.231-1.874 2.35-2.093 2.212-.51-.324-.382-1.3-.382-1.991 0-2.164.334-3.066-.651-3.298-.327-.078-.567-.128-1.403-.138l-.424-.002c-.887 0-1.627.039-2.072.252-.342.165-.607.532-.446.554z" />
    <path d="M29.582 35.543s.346-.037.524-.225c.162-.171.156-.495.156-.495s-.021-1.51.693-1.733c.705-.22 1.609 1.46 2.569 2.107.725.488 1.275.381 1.275.381l2.565-.035s1.34-.08.705-1.116c-.053-.085-.371-.766-1.906-2.165-1.61-1.465-1.393-1.228.543-3.762 1.18-1.543 1.651-2.485 1.504-2.888-.14-.385-1.008-.283-1.008-.283l-2.887.018s-.214-.029-.372.064c-.155.091-.256.304-.256.304s-.456 1.194-1.066 2.21c-1.285 2.142-1.799 2.255-2.01 2.123-.489-.311-.366-1.247-.366-1.911 0-2.077.32-2.943-.625-3.167-.314-.074-.545-.123-1.348-.131-1.03-.01-1.901.003-2.395.24-.329.158-.582.51-.427.53.19.025.622.115.851.42.296.396.286 1.283.286 1.283s.17 2.444-.397 2.748c-.39.208-.923-.217-2.07-2.161-.586-.996-1.03-2.096-1.03-2.096s-.085-.206-.238-.316c-.185-.134-.443-.175-.443-.175l-2.743.017s-.412.011-.564.187c-.134.156-.01.48-.01.48s2.148 4.932 4.58 7.418c2.23 2.279 4.762 2.13 4.762 2.13h1.148z" />
</svg>