<svg xmlns="http://www.w3.org/2000/svg" width="24" height="24">
<defs>
  <radialGradient id="rg" r="150%" cx="30%" cy="107%">
    <stop stop-color="#fdf497" offset="0" />
    <stop stop-color="#fdf497" offset="0.05" />
    <stop stop-color="#fd5949" offset="0.45" />
    <stop stop-color="#d6249f" offset="0.6" />
    <stop stop-color="#285AEB" offset="0.9" />
  </radialGradient>
</defs>
<path fill="url(#rg)" fill-rule="evenodd" d="M12 2h-.002c2.717 0 3.056.012 4.123.06 1.064.05 1.791.218 2.429.465a4.887 4.887 0 0 1 1.77 1.153 4.908 4.908 0 0 1 1.155 1.772c.246.635.415 1.362.465 2.427.047 1.066.06 1.407.06 4.123s-.013 3.056-.06 4.122c-.05 1.065-.22 1.792-.465 2.428a4.909 4.909 0 0 1-1.154 1.77 4.893 4.893 0 0 1-1.77 1.155c-.637.247-1.364.416-2.429.465-1.066.048-1.406.06-4.122.06s-3.057-.012-4.123-.06c-1.065-.05-1.792-.218-2.428-.465a4.897 4.897 0 0 1-1.77-1.154 4.9 4.9 0 0 1-1.154-1.772c-.247-.635-.416-1.362-.465-2.427C2.012 15.056 2 14.716 2 12s.013-3.057.06-4.124c.048-1.064.217-1.79.465-2.427a4.909 4.909 0 0 1 1.154-1.77A4.897 4.897 0 0 1 5.45 2.524c.636-.247 1.363-.416 2.428-.465C8.944 2.012 9.285 2 12 2zm-.896 1.802V3.8c-1.864.002-2.221.014-3.144.056-.975.045-1.504.207-1.857.345-.467.181-.8.398-1.15.748-.35.35-.567.683-.748 1.15-.137.352-.3.882-.345 1.857-.047 1.054-.057 1.369-.057 4.04 0 2.67.01 2.986.057 4.04.045.975.208 1.505.345 1.857.181.467.398.8.748 1.15.35.35.683.566 1.15.747.353.137.882.3 1.857.345 1.054.048 1.37.058 4.04.058 2.671 0 2.988-.01 4.042-.058.975-.045 1.504-.207 1.856-.345.467-.181.8-.398 1.15-.748.35-.35.567-.682.748-1.148.137-.353.3-.882.344-1.857.048-1.054.059-1.37.059-4.04 0-2.668-.01-2.985-.059-4.039-.044-.975-.207-1.504-.344-1.856a3.103 3.103 0 0 0-.748-1.15 3.093 3.093 0 0 0-1.15-.748c-.352-.137-.881-.3-1.856-.344-1.055-.048-1.371-.058-4.041-.058h-.897zm6.235 1.66a1.2 1.2 0 1 1 0 2.4 1.2 1.2 0 0 1 0-2.4zM12 6.866a5.135 5.135 0 1 1 0 10.269 5.135 5.135 0 0 1 0-10.27zm0 1.802a3.333 3.333 0 1 0 0 6.666 3.333 3.333 0 0 0 0-6.666z"/>
</svg>
